# File created by Blade
# Date/Time:  Tue Jan 27 19:00:36 2015
# Frame Rate: 120.000 fps
#------------------------------------------------------
:FULLY-SPECIFIED
:DEGREES
2398
root -1.014877 31.500217 -4.900654 6.800611 -34.901251 -7.581800
Spine 5.262390 0.132227 -2.645756
Head 26.437721 3.016490 2.546287
LeftShoulder -19.786104 19.186685 12.842909
LeftArm 0.562600 -39.068816 -76.994245
LeftForeArm 1.108570 -0.000000 104.113255
LeftHand -16.032626 -0.000000 29.030496
LeftHandThumb1 -26.253704 0.000000 33.147579
RightShoulder -10.647566 -2.308021 -7.318751
RightArm 5.434670 -22.234618 81.305610
RightForeArm -26.464345 -0.000000 21.328044
RightHand -17.342279 -0.000000 1.713615
RightHandThumb1 -24.326973 -0.000000 -32.862282
LeftUpLeg -9.225935 19.387076 -8.061823
LeftLeg 16.405120 -0.000000 -0.000000
LeftFoot -37.319169 40.108641 -25.499310
LeftToeBase 9.826409 -0.000000 -0.000000
RightUpLeg -50.232162 -40.047258 10.188247
RightLeg 66.161228 -0.000000 -0.000000
RightFoot -21.154468 -15.523875 29.976250
RightToeBase 4.215676 -0.000000 -0.000000
2399
root -1.011939 31.502736 -4.928350 6.925429 -34.867296 -7.640396
Spine 5.305848 0.178632 -2.624322
Head 26.434070 3.064369 2.511214
LeftShoulder -19.793234 19.125784 12.853555
LeftArm 0.762315 -38.888170 -77.072390
LeftForeArm 1.144557 0.000000 104.139651
LeftHand -16.062476 -0.000000 29.155858
LeftHandThumb1 -26.253704 0.000000 33.147579
RightShoulder -10.597239 -2.274215 -7.366665
RightArm 5.509417 -22.288951 81.207588
RightForeArm -26.495659 -0.000000 21.363250
RightHand -17.320987 0.000000 1.822395
RightHandThumb1 -24.326973 -0.000000 -32.862282
LeftUpLeg -9.420937 19.409825 -8.045478
LeftLeg 16.491838 -0.000000 -0.000000
LeftFoot -37.300666 40.087836 -25.471645
LeftToeBase 9.840257 -0.000000 -0.000000
RightUpLeg -50.368277 -40.012825 10.363549
RightLeg 66.097756 -0.000000 -0.000000
RightFoot -21.114134 -15.460529 30.154311
RightToeBase 4.398784 -0.000000 -0.000000
2400
root -1.008414 31.504360 -4.952535 7.023541 -34.837895 -7.674660
Spine 5.354282 0.224400 -2.621349
Head 26.437268 3.105158 2.488413
LeftShoulder -19.789874 19.071308 12.856531
LeftArm 0.919324 -38.749709 -77.117684
LeftForeArm 1.122177 0.000000 104.181096
LeftHand -16.050806 0.000000 29.101817
LeftHandThumb1 -26.253704 0.000000 33.147579
RightShoulder -10.534369 -2.246476 -7.422146
RightArm 5.569149 -22.264850 81.123330
RightForeArm -26.641570 -0.000000 21.395528
RightHand -17.194196 0.000000 1.983273
RightHandThumb1 -24.326973 -0.000000 -32.862282
LeftUpLeg -9.583123 19.372103 -8.027561
LeftLeg 16.575683 -0.000000 -0.000000
LeftFoot -37.193142 40.119329 -25.318099
LeftToeBase 9.806626 -0.000000 -0.000000
RightUpLeg -50.478970 -39.969245 10.480360
RightLeg 66.067203 -0.000000 -0.000000
RightFoot -21.011642 -15.398727 30.249175
RightToeBase 4.402230 -0.000000 -0.000000
2401
root -1.002987 31.505270 -4.976079 7.137906 -34.800576 -7.718673
Spine 5.388792 0.254067 -2.594644
Head 26.461928 3.180301 2.449397
LeftShoulder -19.868571 19.147309 12.765048
LeftArm 1.306464 -38.596418 -77.272383
LeftForeArm 1.131630 0.000000 104.215523
LeftHand -16.145965 -0.000000 29.232219
LeftHandThumb1 -26.253704 0.000000 33.147579
RightShoulder -10.468008 -2.192393 -7.497806
RightArm 5.635587 -22.332518 81.022278
RightForeArm -26.660279 -0.000000 21.391422
RightHand -17.229739 0.000000 2.033466
RightHandThumb1 -24.326973 -0.000000 -32.862282
LeftUpLeg -9.763809 19.338898 -8.021487
LeftLeg 16.654747 -0.000000 -0.000000
LeftFoot -37.153638 40.169616 -25.224602
LeftToeBase 9.807943 -0.000000 -0.000000
RightUpLeg -50.594655 -39.923389 10.601928
RightLeg 66.041558 -0.000000 -0.000000
RightFoot -20.910171 -15.362246 30.297206
RightToeBase 4.569681 -0.000000 -0.000000
2402
root -0.996968 31.505857 -5.000897 7.254107 -34.765292 -7.760726
Spine 5.430825 0.265698 -2.573022
Head 26.473355 3.267955 2.390072
LeftShoulder -19.869392 19.024185 12.744018
LeftArm 1.301629 -38.456375 -77.153413
LeftForeArm 1.110700 -0.000000 104.294108
LeftHand -16.224538 -0.000000 29.336536
LeftHandThumb1 -26.253704 0.000000 33.147579
RightShoulder -10.422423 -2.118381 -7.567108
RightArm 5.696114 -22.399415 80.921079
RightForeArm -26.719400 -0.000000 21.416066
RightHand -17.259919 -0.000000 2.030742
RightHandThumb1 -24.326973 -0.000000 -32.862282
LeftUpLeg -9.959273 19.302646 -8.017024
LeftLeg 16.753545 -0.000000 -0.000000
LeftFoot -37.126721 40.183941 -25.163220
LeftToeBase 9.818531 -0.000000 -0.000000
RightUpLeg -50.708048 -39.863658 10.712158
RightLeg 66.031077 -0.000000 -0.000000
RightFoot -20.795611 -15.343419 30.294728
RightToeBase 4.764547 -0.000000 -0.000000
2403
root -0.991415 31.506398 -5.025313 7.359624 -34.749512 -7.790998
Spine 5.469099 0.294044 -2.567793
Head 26.507058 3.364086 2.347351
LeftShoulder -19.884660 18.992603 12.697642
LeftArm 1.431710 -38.380898 -77.141824
LeftForeArm 1.094739 -0.000000 104.357436
LeftHand -16.293245 0.000000 29.310127
LeftHandThumb1 -26.253704 0.000000 33.147579
RightShoulder -10.383894 -2.097706 -7.623938
RightArm 5.855637 -22.568228 80.762428
RightForeArm -26.778927 -0.000000 21.381621
RightHand -17.247458 -0.000000 2.116896
RightHandThumb1 -24.326973 -0.000000 -32.862282
LeftUpLeg -10.141329 19.292916 -8.024848
LeftLeg 16.829272 -0.000000 -0.000000
LeftFoot -37.072100 40.227653 -25.065942
LeftToeBase 9.833996 -0.000000 -0.000000
RightUpLeg -50.812550 -39.786870 10.808335
RightLeg 66.028099 -0.000000 -0.000000
RightFoot -20.620181 -15.355900 30.184716
RightToeBase 4.491755 -0.000000 -0.000000
2404
root -0.984033 31.506184 -5.051243 7.443852 -34.720114 -7.817489
Spine 5.541562 0.299337 -2.558473
Head 26.529990 3.475442 2.312671
LeftShoulder -19.870993 19.018563 12.637263
LeftArm 1.585375 -38.376768 -77.165000
LeftForeArm 1.073332 -0.000000 104.425756
LeftHand -16.328903 -0.000000 29.295742
LeftHandThumb1 -26.253704 0.000000 33.147579
RightShoulder -10.322565 -2.042657 -7.699072
RightArm 5.937315 -22.534478 80.660399
RightForeArm -26.816811 -0.000000 21.439967
RightHand -17.194009 -0.000000 2.224322
RightHandThumb1 -24.326973 -0.000000 -32.862282
LeftUpLeg -10.310929 19.261911 -8.028439
LeftLeg 16.916149 -0.000000 -0.000000
LeftFoot -37.018207 40.277504 -24.988187
LeftToeBase 9.743093 -0.000000 -0.000000
RightUpLeg -50.897681 -39.711904 10.880829
RightLeg 66.063143 -0.000000 -0.000000
RightFoot -20.491525 -15.432201 30.114651
RightToeBase 4.787122 -0.000000 -0.000000
2405
root -0.978821 31.506032 -5.073343 7.515087 -34.715712 -7.825137
Spine 5.588814 0.302659 -2.579330
Head 26.592508 3.582310 2.281057
LeftShoulder -19.864792 18.907889 12.646277
LeftArm 1.523233 -38.340414 -77.061959
LeftForeArm 1.022476 -0.000000 104.484597
LeftHand -16.348428 -0.000000 29.333898
LeftHandThumb1 -26.253704 0.000000 33.147579
RightShoulder -10.230925 -2.007015 -7.758832
RightArm 6.015862 -22.572920 80.538398
RightForeArm -26.879002 0.000000 21.507463
RightHand -17.214558 -0.000000 2.273616
RightHandThumb1 -24.326973 -0.000000 -32.862282
LeftUpLeg -10.451804 19.287319 -8.047944
LeftLeg 16.962524 -0.000000 -0.000000
LeftFoot -36.975131 40.285494 -24.923915
LeftToeBase 9.749437 -0.000000 -0.000000
RightUpLeg -50.972172 -39.620877 10.918633
RightLeg 66.121109 -0.000000 -0.000000
RightFoot -20.319874 -15.533857 29.986983
RightToeBase 4.690846 -0.000000 -0.000000
2406
root -0.974738 31.506183 -5.094265 7.576159 -34.703499 -7.827567
Spine 5.637576 0.304923 -2.611771
Head 26.667951 3.670251 2.269117
LeftShoulder -19.925206 18.946232 12.596072
LeftArm 1.708944 -38.288683 -77.100397
LeftForeArm 1.014295 -0.000000 104.532824
LeftHand -16.426657 -0.000000 29.290741
LeftHandThumb1 -26.253704 0.000000 33.147579
RightShoulder -10.162659 -1.948557 -7.820147
RightArm 6.094626 -22.623382 80.427250
RightForeArm -26.877772 -0.000000 21.540252
RightHand -17.275399 0.000000 2.313682
RightHandThumb1 -24.326973 -0.000000 -32.862282
LeftUpLeg -10.577580 19.326487 -8.065140
LeftLeg 17.008935 -0.000000 -0.000000
LeftFoot -36.889437 40.266076 -24.810294
LeftToeBase 9.706156 -0.000000 -0.000000
RightUpLeg -51.041922 -39.546840 10.943123
RightLeg 66.195860 -0.000000 -0.000000
RightFoot -20.136776 -15.666262 29.766126
RightToeBase 4.567717 -0.000000 -0.000000
2407
root -0.968223 31.506551 -5.114867 7.621259 -34.726586 -7.825781
Spine 5.710686 0.365712 -2.647825
Head 26.740309 3.731286 2.279180
LeftShoulder -20.022548 19.148663 12.474061
LeftArm 2.158413 -38.249304 -77.296242
LeftForeArm 0.999382 0.000000 104.575428
LeftHand -16.475125 -0.000000 29.353623
LeftHandThumb1 -26.253704 0.000000 33.147579
RightShoulder -10.131992 -1.874465 -7.871349
RightArm 6.169390 -22.663121 80.322739
RightForeArm -27.161315 -0.000000 21.529236
RightHand -17.235064 -0.000000 2.110946
RightHandThumb1 -24.326973 -0.000000 -32.862282
LeftUpLeg -10.683128 19.403256 -8.088507
LeftLeg 17.035715 -0.000000 -0.000000
LeftFoot -36.837428 40.215615 -24.752570
LeftToeBase 9.716639 -0.000000 -0.000000
RightUpLeg -51.079605 -39.431150 10.925581
RightLeg 66.305332 -0.000000 -0.000000
RightFoot -19.964483 -15.758646 29.731358
RightToeBase 5.024992 -0.000000 -0.000000
2408
root -0.963869 31.507949 -5.135499 7.697385 -34.724901 -7.834239
Spine 5.740353 0.393226 -2.673552
Head 26.835040 3.802950 2.308351
LeftShoulder -20.045494 19.213702 12.426287
LeftArm 2.308175 -38.232809 -77.318785
LeftForeArm 0.969728 -0.000000 104.638010
LeftHand -16.555243 0.000000 29.385117
LeftHandThumb1 -26.253704 0.000000 33.147579
RightShoulder -10.110855 -1.839411 -7.923165
RightArm 6.302749 -22.763692 80.149357
RightForeArm -26.877955 -0.000000 21.570463
RightHand -17.220393 -0.000000 2.201898
RightHandThumb1 -24.326973 -0.000000 -32.862282
LeftUpLeg -10.808331 19.473083 -8.106928
LeftLeg 17.051994 -0.000000 -0.000000
LeftFoot -36.743537 40.173885 -24.653868
LeftToeBase 9.667761 -0.000000 -0.000000
RightUpLeg -51.137696 -39.338731 10.936274
RightLeg 66.406272 -0.000000 -0.000000
RightFoot -19.687564 -15.955674 29.481339
RightToeBase 5.118902 -0.000000 -0.000000
2409
root -0.958930 31.509675 -5.157495 7.780591 -34.705022 -7.854718
Spine 5.770698 0.394462 -2.686263
Head 26.920660 3.876398 2.320902
LeftShoulder -20.047719 19.210265 12.421094
LeftArm 2.344467 -38.221588 -77.295750
LeftForeArm 0.942068 -0.000000 104.691758
LeftHand -16.597204 0.000000 29.465656
LeftHandThumb1 -26.253704 0.000000 33.147579
RightShoulder -10.067738 -1.796649 -7.955168
RightArm 6.396592 -22.893151 79.986966
RightForeArm -26.936025 0.000000 21.641683
RightHand -17.267505 0.000000 2.140911
RightHandThumb1 -24.326973 -0.000000 -32.862282
LeftUpLeg -10.940079 19.529186 -8.111689
LeftLeg 17.084430 -0.000000 -0.000000
LeftFoot -36.659459 40.115582 -24.558989
LeftToeBase 9.636527 -0.000000 -0.000000
RightUpLeg -51.192107 -39.251328 10.944097
RightLeg 66.552656 -0.000000 -0.000000
RightFoot -19.359759 -16.106873 29.339795
RightToeBase 5.058346 -0.000000 -0.000000
2410
root -0.955088 31.511423 -5.177216 7.851078 -34.660655 -7.862346
Spine 5.790321 0.357247 -2.699333
Head 27.054087 3.902657 2.285108
LeftShoulder -20.047523 19.235635 12.399410
LeftArm 2.376939 -38.228760 -77.262798
LeftForeArm 0.902888 0.000000 104.740826
LeftHand -16.629200 -0.000000 29.572778
LeftHandThumb1 -26.253704 0.000000 33.147579
RightShoulder -10.009838 -1.772617 -7.999066
RightArm 6.496834 -22.893897 79.847919
RightForeArm -27.060562 -0.000000 21.695722
RightHand -17.221400 0.000000 2.218315
RightHandThumb1 -24.326973 -0.000000 -32.862282
LeftUpLeg -11.048757 19.560893 -8.120532
LeftLeg 17.092581 -0.000000 -0.000000
LeftFoot -36.598182 40.034700 -24.511948
LeftToeBase 9.669866 -0.000000 -0.000000
RightUpLeg -51.249195 -39.211896 10.940735
RightLeg 66.734842 -0.000000 -0.000000
RightFoot -18.845968 -16.325546 28.807730
RightToeBase 4.567112 -0.000000 -0.000000
